<svg id="Layer_1" data-name="Layer 1" xmlns="http://www.w3.org/2000/svg" viewBox="0 0 48 48"><title>25. Law</title><path d="M35.5,31a1,1,0,0,1-.71-.3L16.23,12.11a1,1,0,0,1,0-1.41l7.49-7.5a1,1,0,0,1,1.42,0L43.7,21.77a1,1,0,0,1,.29.71,1,1,0,0,1-.29.7l-7.49,7.49A1,1,0,0,1,35.5,31ZM18.35,11.41,35.5,28.55l6.08-6.07L24.43,5.32Z"/><path d="M32.78,28.25a1,1,0,0,1-.71-1.71l7.5-7.49A1,1,0,0,1,41,20.46L33.49,28A1,1,0,0,1,32.78,28.25ZM19.65,15.13a1,1,0,0,1-.7-.3,1,1,0,0,1,0-1.41l7.49-7.5a1,1,0,0,1,1.42,1.42l-7.5,7.49A1,1,0,0,1,19.65,15.13Z"/><path d="M5.24,45.09a3.47,3.47,0,0,1-2.47-1,3.48,3.48,0,0,1-1-2.57,6.05,6.05,0,0,1,2-4.15c.53-.49,1.56-1.51,2.93-2.86,4.37-4.32,11.7-11.54,17.3-16.18a1,1,0,0,1,1.34.07l3.09,3.08a1,1,0,0,1,.06,1.34C24,28.43,16.74,35.71,12.43,40.07c-1.38,1.39-2.42,2.45-2.95,3a6,6,0,0,1-4.15,2ZM24.63,20.51C19.19,25.09,12.32,31.87,8.15,36c-1.38,1.36-2.43,2.4-3,2.89a4,4,0,0,0-1.38,2.73,1.61,1.61,0,0,0,.37,1.12,1.48,1.48,0,0,0,1.11.36A4,4,0,0,0,8,41.72H8c.53-.56,1.59-1.64,3-3.05,4.1-4.15,10.86-11,15.41-16.37Z"/><path d="M45.19,45.09H22.77a1,1,0,0,1-1-1V41.77a5.15,5.15,0,0,1,5.14-5.14H41.05a5.15,5.15,0,0,1,5.14,5.14v2.32A1,1,0,0,1,45.19,45.09Zm-21.42-2H44.19V41.77a3.15,3.15,0,0,0-3.14-3.14H26.91a3.15,3.15,0,0,0-3.14,3.14Z"/></svg>